<svg width="17" height="17" viewBox="0 0 17 17" fill="none" xmlns="http://www.w3.org/2000/svg">
<g clip-path="url(#clip0)">
<path d="M0.5 8.16667C0.5 4.55257 0.5 2.74551 1.62276 1.62276C2.74551 0.5 4.55257 0.5 8.16667 0.5H8.83333C12.4474 0.5 14.2545 0.5 15.3772 1.62276C16.5 2.74551 16.5 4.55257 16.5 8.16667V8.83333C16.5 12.4474 16.5 14.2545 15.3772 15.3772C14.2545 16.5 12.4474 16.5 8.83333 16.5H8.16667C4.55257 16.5 2.74551 16.5 1.62276 15.3772C0.5 14.2545 0.5 12.4474 0.5 8.83333L0.5 8.16667Z" fill="#2787F5"/>
<path fill-rule="evenodd" clip-rule="evenodd" d="M4.83363 5.5H3.6667C3.33329 5.5 3.2666 5.65693 3.2666 5.82993C3.2666 6.13897 3.66222 7.6716 5.10867 9.69863C6.07297 11.0829 7.43157 11.8333 8.66787 11.8333C9.40963 11.8333 9.5014 11.6667 9.5014 11.3796V10.3333C9.5014 10 9.57167 9.93347 9.80653 9.93347C9.97963 9.93347 10.2763 10.02 10.9687 10.6874C11.7599 11.4785 11.8903 11.8333 12.3354 11.8333H13.5023C13.8357 11.8333 14.0024 11.6667 13.9063 11.3378C13.801 11.01 13.4233 10.5343 12.922 9.97057C12.65 9.6492 12.242 9.30313 12.1184 9.13007C11.9453 8.9076 11.9948 8.8087 12.1184 8.61097C12.1184 8.61097 13.5401 6.60863 13.6885 5.92887C13.7627 5.68163 13.6885 5.5 13.3356 5.5H12.1687C11.872 5.5 11.7352 5.65693 11.661 5.82993C11.661 5.82993 11.0676 7.27607 10.2269 8.21543C9.9549 8.48733 9.83127 8.57387 9.6829 8.57387C9.60874 8.57387 9.50137 8.48733 9.50137 8.24017V5.92887C9.50137 5.6322 9.41527 5.5 9.16797 5.5H7.3342C7.1488 5.5 7.03727 5.63767 7.03727 5.76817C7.03727 6.04937 7.4576 6.11423 7.50093 6.90527V8.62333C7.50093 9 7.43287 9.0683 7.28453 9.0683C6.88893 9.0683 5.92664 7.6157 5.3559 5.95357C5.24407 5.6305 5.13187 5.5 4.83363 5.5Z" fill="white"/>
</g>
<defs>
<clipPath id="clip0">
<rect width="16" height="16" fill="white" transform="translate(0.5 0.5)"/>
</clipPath>
</defs>
</svg>
