<svg width="17" height="17" viewBox="0 0 17 17" fill="none" xmlns="http://www.w3.org/2000/svg">
<path d="M0.5 8.5C0.5 16.5 0.5 16.5 8.5 16.5C16.5 16.5 16.5 16.5 16.5 8.5C16.5 0.5 16.5 0.5 8.5 0.5C0.5 0.5 0.5 0.5 0.5 8.5Z" fill="#E27E35"/>
<path d="M7.24685 11.2203C6.6156 11.0766 6.00778 10.8266 5.44839 10.475C5.02496 10.2078 4.89683 9.64845 5.16403 9.22344C5.43122 8.79844 5.99058 8.67031 6.4156 8.9375C7.68435 9.73594 9.31716 9.73437 10.5859 8.9375C11.0109 8.67031 11.5703 8.79844 11.8375 9.22344C12.1047 9.64687 11.9765 10.2078 11.5531 10.475C10.9937 10.8266 10.3859 11.0766 9.75466 11.2203L11.4844 12.9516C11.839 13.3062 11.839 13.8797 11.4844 14.2344C11.3062 14.4109 11.075 14.5 10.8437 14.5C10.6109 14.5 10.3797 14.4109 10.2015 14.2344L8.49997 12.5328L6.79841 14.2344C6.44372 14.5891 5.87028 14.5891 5.5156 14.2344C5.16091 13.8797 5.16091 13.3047 5.5156 12.9516L7.24685 11.2203ZM8.49997 4.31562C7.79215 4.31562 7.21714 4.89062 7.21714 5.59844C7.21714 6.30469 7.79215 6.87969 8.49997 6.87969C9.20621 6.87969 9.78279 6.30469 9.78279 5.59844C9.78279 4.89062 9.20621 4.31562 8.49997 4.31562ZM8.49997 8.69375C6.79214 8.69375 5.4031 7.30469 5.4031 5.59842C5.4031 3.88906 6.79214 2.5 8.49997 2.5C10.2078 2.5 11.5968 3.88906 11.5968 5.59687C11.5968 7.30469 10.2078 8.69375 8.49997 8.69375Z" fill="white"/>
</svg>
